<svg xmlns="http://www.w3.org/2000/svg" width="38" height="12"><g fill="none" fill-rule="evenodd" stroke="#2874F0" stroke-width="1.3"><path fill="#FFF" fill-rule="nonzero" d="M37.35.65H.65v10.7h36.7V.65z"/><path fill="#878787" d="M6.65 8.65h1v2.7h-1zm4-3H11l-.35-.35V5l-.15.15-.15-.15v.3l-.35.35h.35v5.7H10l.35.35v.3l.15-.15.15.15v-.3l.35-.35h-.35v-5.7zm5 3H16l-.35-.35V8l-.15.15-.15-.15v.3l-.35.35h.35v2.7H15l.35.35v.3l.15-.15.15.15v-.3l.35-.35h-.35v-2.7zm4-3h1v5.7h-1zm4 3h1v2.7h-1zm9 0h1v2.7h-1zm-4-3h1v5.7h-1z"/></g></svg>