<svg xmlns="http://www.w3.org/2000/svg" width="16" height="15" viewBox="0 0 16 15">
    <defs>
        <linearGradient id="a" x1="0%" x2="86.876%" y1="0%" y2="80.202%">
            <stop offset="0%" stop-color="#FFD800"/>
            <stop offset="100%" stop-color="#FFAF00"/>
        </linearGradient>
    </defs>
    <g fill="none" fill-rule="evenodd">
        <path d="M-2-2h20v20H-2z"/>
        <path fill="url(#a)" fill-rule="nonzero" d="M15.93 5.614h-2.948V4.14c0-.818-.655-1.473-1.473-1.473H8.56c-.817 0-1.473.655-1.473 1.473v1.474H4.14c-.818 0-1.466.656-1.466 1.474l-.007 8.105c0 .818.655 1.474 1.473 1.474h11.79c.818 0 1.474-.656 1.474-1.474V7.088c0-.818-.656-1.474-1.474-1.474zm-4.421 0H8.56V4.14h2.948v1.474z" transform="translate(-2 -2)"/>
    </g>
</svg>
