<svg xmlns="http://www.w3.org/2000/svg" width="15" height="15" viewBox="0 0 15 15">
    <defs>
        <linearGradient id="a" x1="0%" x2="86.876%" y1="0%" y2="80.202%">
            <stop offset="0%" stop-color="#FFD800"/>
            <stop offset="100%" stop-color="#FFAF00"/>
        </linearGradient>
    </defs>
    <g fill="none" fill-rule="evenodd">
        <path d="M-3-3h20v20H-3z"/>
        <path fill="url(#a)" fill-rule="nonzero" d="M10.492 3C6.353 3 3 6.36 3 10.5c0 4.14 3.353 7.5 7.492 7.5C14.64 18 18 14.64 18 10.5 18 6.36 14.64 3 10.492 3zm3.18 12L10.5 13.088 7.327 15l.84-3.607L5.37 8.97l3.69-.315L10.5 5.25l1.44 3.398 3.69.315-2.798 2.422.84 3.615z" transform="translate(-3 -3)"/>
    </g>
</svg>
